<svg id="Capa_1" enable-background="new 0 0 512 512" height="512" viewBox="0 0 512 512" width="512" xmlns="http://www.w3.org/2000/svg"><g><path d="m397 175.95v24.37c-77.345 76.201-202.392 79.768-282 .31v-24.68h17.84c67.982 71.558 178.541 69.588 246.05 0z" fill="#ff9b57"/><path d="m397 175.95v24.37c-39.12 38.542-90.322 58.297-141 58.53v-30c46.63-.26 90.21-19.22 122.89-52.9z" fill="#fc7c54"/><path d="m397 386.95v94h-282v-93.98l69.58-80.81c2.85-3.31 7-5.21 11.37-5.21h120c4.36 0 8.51 1.9 11.36 5.2z" fill="#fc7c54"/><path d="m397 386.95v94h-141v-180h59.95c4.36 0 8.51 1.9 11.36 5.2z" fill="#f35743"/><path d="m482 175.95v290c0 8.28-6.72 15-15 15h-75v-305z" fill="#d2f1ff"/><path d="m482 175.95v290c0 8.28-6.72 15-15 15h-30.05v-305z" fill="#aee8ff"/><path d="m497 150.95h-120.1c-8.284 0-15 6.716-15 15s6.716 15 15 15h120.1c8.284 0 15-6.716 15-15s-6.716-15-15-15z" fill="#aee8ff"/><path d="m512 165.95c0 8.28-6.72 15-15 15h-60.05v-30h60.05c8.28 0 15 6.72 15 15z" fill="#8cd4f4"/><ellipse cx="436.95" cy="91" fill="#aee8ff" rx="59.95" ry="59.95" transform="matrix(.383 -.924 .924 .383 185.664 459.865)"/><path d="m496.9 91c0 33.06-26.89 59.95-59.95 59.95v-119.9c33.06 0 59.95 26.89 59.95 59.95z" fill="#8cd4f4"/><path d="m120 175.95v305h-75c-8.28 0-15-6.72-15-15v-290z" fill="#d2f1ff"/><path d="m75.05 175.95h44.95v305h-44.95z" fill="#aee8ff"/><path d="m15 150.95h120.1c8.284 0 15 6.716 15 15s-6.716 15-15 15h-120.1c-8.284 0-15-6.716-15-15s6.716-15 15-15z" fill="#aee8ff"/><path d="m150.1 165.95c0 8.28-6.72 15-15 15h-60.05v-30h60.05c8.28 0 15 6.72 15 15z" fill="#8cd4f4"/><ellipse cx="75.05" cy="91" fill="#aee8ff" rx="59.95" ry="59.95" transform="matrix(.924 -.383 .383 .924 -29.111 35.647)"/><path d="m135 91c0 33.06-26.89 59.95-59.95 59.95v-119.9c33.06 0 59.95 26.89 59.95 59.95z" fill="#8cd4f4"/></g></svg>