<svg id="Capa_1" enable-background="new 0 0 512 512" height="512" viewBox="0 0 512 512" width="512" xmlns="http://www.w3.org/2000/svg"><g><path d="m135 91c0-33.057-26.894-59.95-59.95-59.95s-59.95 26.893-59.95 59.95 26.893 59.95 59.95 59.95 59.95-26.893 59.95-59.95zm-59.95 29.95c-16.514 0-29.95-13.436-29.95-29.95s13.436-29.95 29.95-29.95 29.95 13.435 29.95 29.95-13.436 29.95-29.95 29.95z"/><path d="m497 150.95c-5.28 0-114.836 0-120.1 0-8.284 0-15 6.716-15 15 0 7.337 5.272 13.434 12.232 14.734-66.368 63.53-169.984 65.001-236.573.047 7.112-1.176 12.541-7.337 12.541-14.781 0-8.284-6.716-15-15-15-5.272 0-114.828 0-120.1 0-8.284 0-15 6.716-15 15s6.716 15 15 15h15.1v285c0 8.284 6.716 15 15 15h421.9c8.284 0 15-6.716 15-15v-285h15c8.284 0 15-6.716 15-15s-6.716-15-15-15zm-376.9 276.082 82.729-96.082h106.25l82.921 96.142v23.858h-271.9zm271.9-221.975v176.101l-64.691-75.005c-2.85-3.304-6.996-5.203-11.359-5.203h-120c-4.367 0-8.518 1.903-11.367 5.213l-64.483 74.891v-175.514c77.851 72.538 195.634 69.799 271.9-.483zm-331.9-24.107h30v270h-30zm391.9 270h-30v-270h30z"/><path d="m496.9 91c0-33.057-26.893-59.95-59.95-59.95s-59.95 26.893-59.95 59.95 26.894 59.95 59.95 59.95 59.95-26.893 59.95-59.95zm-59.95 29.95c-16.514 0-29.95-13.435-29.95-29.95s13.436-29.95 29.95-29.95 29.95 13.436 29.95 29.95-13.436 29.95-29.95 29.95z"/></g></svg>