<?xml version="1.0" encoding="iso-8859-1"?>
<!-- Generator: Adobe Illustrator 19.0.0, SVG Export Plug-In . SVG Version: 6.00 Build 0)  -->
<svg version="1.1" id="Capa_1" xmlns="http://www.w3.org/2000/svg" xmlns:xlink="http://www.w3.org/1999/xlink" x="0px" y="0px"
	 viewBox="0 0 512 512" style="enable-background:new 0 0 512 512;" xml:space="preserve">
<g>
	<g>
		<path d="M256,170.667c-29.419,0-53.333,23.915-53.333,53.333s23.915,53.333,53.333,53.333c29.419,0,53.333-23.915,53.333-53.333
			S285.419,170.667,256,170.667z M256,256c-17.643,0-32-14.357-32-32s14.357-32,32-32c17.643,0,32,14.357,32,32S273.643,256,256,256
			z"/>
	</g>
</g>
<g>
	<g>
		<path d="M405.333,0H106.667C77.248,0,53.333,23.915,53.333,53.333v128c0,29.419,23.915,53.333,53.333,53.333h106.667
			c5.888,0,10.667-4.779,10.667-10.667s-4.779-10.667-10.667-10.667H106.667c-17.643,0-32-14.357-32-32v-128
			c0-17.643,14.357-32,32-32h298.667c17.643,0,32,14.357,32,32v128c0,17.643-14.357,32-32,32H298.667
			c-5.888,0-10.667,4.779-10.667,10.667s4.779,10.667,10.667,10.667h106.667c29.419,0,53.333-23.915,53.333-53.333v-128
			C458.667,23.915,434.752,0,405.333,0z"/>
	</g>
</g>
<g>
	<g>
		<path d="M256,256c-5.888,0-10.667,4.779-10.667,10.667v192c0,5.888,4.779,10.667,10.667,10.667s10.667-4.779,10.667-10.667v-192
			C266.667,260.779,261.888,256,256,256z"/>
	</g>
</g>
<g>
	<g>
		<path d="M256,448c-54.72,0-96,22.933-96,53.333c0,5.888,4.779,10.667,10.667,10.667h170.667c5.888,0,10.667-4.779,10.667-10.667
			C352,470.933,310.72,448,256,448z M186.304,490.667c10.581-11.413,36.928-21.333,69.675-21.333
			c32.747,0,59.136,9.92,69.696,21.333H186.304z"/>
	</g>
</g>
<g>
	<g>
		<path d="M384,64H128c-5.888,0-10.667,4.779-10.667,10.667S122.112,85.333,128,85.333h256c5.888,0,10.667-4.779,10.667-10.667
			S389.888,64,384,64z"/>
	</g>
</g>
<g>
	<g>
		<path d="M341.333,106.667H170.667c-5.888,0-10.667,4.779-10.667,10.667S164.779,128,170.667,128h170.667
			c5.888,0,10.667-4.779,10.667-10.667S347.221,106.667,341.333,106.667z"/>
	</g>
</g>
<g>
</g>
<g>
</g>
<g>
</g>
<g>
</g>
<g>
</g>
<g>
</g>
<g>
</g>
<g>
</g>
<g>
</g>
<g>
</g>
<g>
</g>
<g>
</g>
<g>
</g>
<g>
</g>
<g>
</g>
</svg>
