<?xml version="1.0" encoding="iso-8859-1"?>
<!-- Generator: Adobe Illustrator 19.0.0, SVG Export Plug-In . SVG Version: 6.00 Build 0)  -->
<svg version="1.1" id="Capa_1" xmlns="http://www.w3.org/2000/svg" xmlns:xlink="http://www.w3.org/1999/xlink" x="0px" y="0px"
	 viewBox="0 0 429.453 429.453" style="enable-background:new 0 0 429.453 429.453;" xml:space="preserve">
<polygon style="fill:#4DCFE0;" points="366.759,295.184 366.759,296.751 330.188,296.751 304.065,333.322 125.388,333.322 
	99.265,296.751 62.694,296.751 62.694,295.184 62.694,23.51 366.759,23.51 "/>
<polygon style="fill:#D4E1F4;" points="413.78,296.751 413.78,405.943 15.673,405.943 15.673,296.751 62.694,296.751 
	99.265,296.751 125.388,333.322 304.065,333.322 330.188,296.751 366.759,296.751 "/>
<g>
	<path style="fill:#3A2C51;" d="M413.78,281.078h-31.347V23.51c0-8.882-6.792-15.673-15.673-15.673H62.694
		c-8.882,0-15.673,6.792-15.673,15.673v257.567H15.673C6.792,281.078,0,287.869,0,296.751v109.192
		c0,8.882,6.792,15.673,15.673,15.673H413.78c8.882,0,15.673-6.792,15.673-15.673V296.751
		C429.453,287.869,422.661,281.078,413.78,281.078z M78.367,39.184h272.718v241.894h-20.898c-5.224,0-9.927,2.612-12.539,6.792
		l-21.42,29.78H133.225l-21.42-29.78c-3.135-4.18-7.837-6.792-12.539-6.792H78.367V39.184z M398.106,390.269H31.347v-77.845h60.082
		l21.42,29.78c3.135,4.18,7.837,6.792,12.539,6.792h178.678c5.224,0,9.927-2.612,12.539-6.792l21.42-29.78h60.082V390.269z"/>
	<rect x="172.408" y="148.898" style="fill:#3A2C51;" width="141.061" height="31.347"/>
	<rect x="115.984" y="148.898" style="fill:#3A2C51;" width="36.049" height="31.347"/>
	<rect x="172.408" y="80.98" style="fill:#3A2C51;" width="141.061" height="31.347"/>
	<rect x="115.984" y="80.98" style="fill:#3A2C51;" width="36.049" height="31.347"/>
	<rect x="172.408" y="217.339" style="fill:#3A2C51;" width="141.061" height="31.347"/>
	<rect x="115.984" y="217.339" style="fill:#3A2C51;" width="36.049" height="31.347"/>
</g>
<g>
</g>
<g>
</g>
<g>
</g>
<g>
</g>
<g>
</g>
<g>
</g>
<g>
</g>
<g>
</g>
<g>
</g>
<g>
</g>
<g>
</g>
<g>
</g>
<g>
</g>
<g>
</g>
<g>
</g>
</svg>
