<?xml version="1.0" encoding="utf-8"?>
<!-- Generator: Adobe Illustrator 19.0.0, SVG Export Plug-In . SVG Version: 6.00 Build 0)  -->
<svg xmlns="http://www.w3.org/2000/svg" xmlns:xlink="http://www.w3.org/1999/xlink" version="1.1" id="Layer_1" x="0px" y="0px" viewBox="0 2 98 98" style="enable-background:new 0 2 98 98;" xml:space="preserve" width="512" height="512">
<style type="text/css">
	.st0{fill:url(#SVGID_1_);}
	.st1{fill:url(#SVGID_2_);}
	.st2{fill:url(#SVGID_3_);}
	.st3{fill:url(#SVGID_4_);}
	.st4{fill:url(#SVGID_5_);}
	.st5{fill:url(#SVGID_6_);}
	.st6{fill:url(#SVGID_7_);}
</style>
<g>
	<linearGradient id="SVGID_1_" gradientUnits="userSpaceOnUse" x1="49" y1="8.75" x2="49" y2="91.2742">
		<stop offset="0" style="stop-color:#00EFD1"/>
		<stop offset="1" style="stop-color:#00ACEA"/>
	</linearGradient>
	<path class="st0" d="M87.1,63.7h-6V14.4c0-1.7-1.3-3-3-3H19.9c-1.7,0-3,1.3-3,3v49.3h-6c-1.7,0-3,1.3-3,3v20.9c0,1.7,1.3,3,3,3   h76.2c1.7,0,3-1.3,3-3V66.7C90.1,65,88.8,63.7,87.1,63.7z M22.9,17.4h52.2v46.3h-4c-1,0-1.9,0.5-2.4,1.3l-4.1,5.7H33.4L29.3,65   c-0.6-0.8-1.5-1.3-2.4-1.3h-4V17.4z M84.1,84.6H13.9V69.7h11.5l4.1,5.7c0.6,0.8,1.5,1.3,2.4,1.3h34.2c1,0,1.9-0.5,2.4-1.3l4.1-5.7   h11.5V84.6z"/>
	<linearGradient id="SVGID_2_" gradientUnits="userSpaceOnUse" x1="54.4" y1="8.75" x2="54.4" y2="91.2742">
		<stop offset="0" style="stop-color:#00EFD1"/>
		<stop offset="1" style="stop-color:#00ACEA"/>
	</linearGradient>
	<rect x="40.9" y="38.4" class="st1" width="27" height="6"/>
	<linearGradient id="SVGID_3_" gradientUnits="userSpaceOnUse" x1="33.55" y1="8.75" x2="33.55" y2="91.2742">
		<stop offset="0" style="stop-color:#00EFD1"/>
		<stop offset="1" style="stop-color:#00ACEA"/>
	</linearGradient>
	<rect x="30.1" y="38.4" class="st2" width="6.9" height="6"/>
	<linearGradient id="SVGID_4_" gradientUnits="userSpaceOnUse" x1="54.4" y1="8.75" x2="54.4" y2="91.2742">
		<stop offset="0" style="stop-color:#00EFD1"/>
		<stop offset="1" style="stop-color:#00ACEA"/>
	</linearGradient>
	<rect x="40.9" y="25.4" class="st3" width="27" height="6"/>
	<linearGradient id="SVGID_5_" gradientUnits="userSpaceOnUse" x1="33.55" y1="8.75" x2="33.55" y2="91.2742">
		<stop offset="0" style="stop-color:#00EFD1"/>
		<stop offset="1" style="stop-color:#00ACEA"/>
	</linearGradient>
	<rect x="30.1" y="25.4" class="st4" width="6.9" height="6"/>
	<linearGradient id="SVGID_6_" gradientUnits="userSpaceOnUse" x1="54.4" y1="8.75" x2="54.4" y2="91.2742">
		<stop offset="0" style="stop-color:#00EFD1"/>
		<stop offset="1" style="stop-color:#00ACEA"/>
	</linearGradient>
	<rect x="40.9" y="51.5" class="st5" width="27" height="6"/>
	<linearGradient id="SVGID_7_" gradientUnits="userSpaceOnUse" x1="33.55" y1="8.75" x2="33.55" y2="91.2742">
		<stop offset="0" style="stop-color:#00EFD1"/>
		<stop offset="1" style="stop-color:#00ACEA"/>
	</linearGradient>
	<rect x="30.1" y="51.5" class="st6" width="6.9" height="6"/>
</g>
</svg>
