<svg id="Layer_1" enable-background="new 0 0 256 256" height="512" viewBox="0 0 256 256" width="512" xmlns="http://www.w3.org/2000/svg"><path d="m239.144 126.33h-54.905c-.828 0-1.5.671-1.5 1.5s.672 1.5 1.5 1.5h54.905c.828 0 1.5-.671 1.5-1.5s-.671-1.5-1.5-1.5z" fill="#3a312a"/><path d="m240.705 126.769-15-15c-.586-.586-1.535-.586-2.121 0s-.586 1.536 0 2.121l13.939 13.94-13.939 13.939c-.586.586-.586 1.536 0 2.121.293.293.677.44 1.06.44s.768-.146 1.061-.44l15-15c.586-.585.586-1.535 0-2.121z" fill="#3a312a"/><circle cx="224.894" cy="26.174" fill="#ef6d7a" r="9.5"/><path d="m224.894 15.174c-6.065 0-11 4.935-11 11s4.935 11 11 11c6.066 0 11-4.935 11-11 0-6.066-4.934-11-11-11zm0 19c-4.411 0-8-3.589-8-8s3.589-8 8-8 8 3.589 8 8-3.588 8-8 8z" fill="#3a312a"/><path d="m224.655 44.174c-.828 0-1.5.671-1.5 1.5v37h-38.916c-.828 0-1.5.671-1.5 1.5s.672 1.5 1.5 1.5h40.416c.828 0 1.5-.671 1.5-1.5v-38.5c0-.829-.672-1.5-1.5-1.5z" fill="#3a312a"/><path d="m240.705 59.582-15-15c-.586-.586-1.535-.586-2.121 0l-15 15c-.586.586-.586 1.536 0 2.121.586.586 1.535.586 2.121 0l13.939-13.939 13.94 13.939c.293.293.677.44 1.06.44s.768-.146 1.061-.44c.586-.585.586-1.536 0-2.121z" fill="#3a312a"/><circle cx="224.894" cy="229.943" fill="#d7e057" r="9.5"/><g fill="#3a312a"><path d="m224.894 218.943c-6.065 0-11 4.935-11 11s4.935 11 11 11c6.066 0 11-4.935 11-11s-4.934-11-11-11zm0 19c-4.411 0-8-3.589-8-8s3.589-8 8-8 8 3.589 8 8-3.588 8-8 8z"/><path d="m224.655 170.443h-40.416c-.828 0-1.5.671-1.5 1.5s.672 1.5 1.5 1.5h38.916v37c0 .829.672 1.5 1.5 1.5s1.5-.671 1.5-1.5v-38.5c0-.828-.672-1.5-1.5-1.5z"/><path d="m240.705 194.414c-.586-.586-1.535-.586-2.121 0l-13.94 13.939-13.939-13.939c-.586-.586-1.535-.586-2.121 0-.586.585-.586 1.536 0 2.121l15 15c.293.293.677.439 1.06.439s.768-.146 1.061-.439l15-15c.586-.586.586-1.536 0-2.121z"/><path d="m72.216 126.33h-54.905c-.829 0-1.5.671-1.5 1.5s.671 1.5 1.5 1.5h54.905c.829 0 1.5-.671 1.5-1.5s-.671-1.5-1.5-1.5z"/><path d="m18.932 127.83 13.94-13.94c.586-.585.586-1.536 0-2.121-.586-.586-1.535-.586-2.121 0l-15 15c-.586.586-.586 1.536 0 2.121l15 15c.293.293.677.44 1.06.44s.768-.146 1.061-.44c.586-.585.586-1.536 0-2.121z"/></g><circle cx="31.561" cy="26.174" fill="#ef6d7a" r="9.5"/><path d="m31.561 15.174c-6.065 0-11 4.935-11 11s4.935 11 11 11c6.066 0 11-4.935 11-11 0-6.066-4.934-11-11-11zm0 19c-4.411 0-8-3.589-8-8s3.589-8 8-8 8 3.589 8 8-3.588 8-8 8z" fill="#3a312a"/><path d="m72.216 82.674h-38.915v-37c0-.829-.671-1.5-1.5-1.5s-1.5.671-1.5 1.5v38.5c0 .829.671 1.5 1.5 1.5h40.416c.829 0 1.5-.671 1.5-1.5-.001-.829-.672-1.5-1.501-1.5z" fill="#3a312a"/><path d="m47.872 59.582-15-15c-.586-.586-1.535-.586-2.121 0l-15 15c-.586.586-.586 1.536 0 2.121.586.586 1.535.586 2.121 0l13.939-13.939 13.94 13.939c.293.293.677.44 1.06.44s.768-.146 1.061-.44c.585-.585.585-1.536 0-2.121z" fill="#3a312a"/><circle cx="31.561" cy="229.943" fill="#d7e057" r="9.5"/><path d="m31.561 218.943c-6.065 0-11 4.935-11 11s4.935 11 11 11c6.066 0 11-4.935 11-11s-4.934-11-11-11zm0 19c-4.411 0-8-3.589-8-8s3.589-8 8-8 8 3.589 8 8-3.588 8-8 8z" fill="#3a312a"/><path d="m72.216 170.443h-40.415c-.829 0-1.5.671-1.5 1.5v38.5c0 .829.671 1.5 1.5 1.5s1.5-.671 1.5-1.5v-37h38.916c.829 0 1.5-.671 1.5-1.5-.001-.828-.672-1.5-1.501-1.5z" fill="#3a312a"/><path d="m47.872 194.414c-.586-.586-1.535-.586-2.121 0l-13.94 13.939-13.939-13.939c-.586-.586-1.535-.586-2.121 0-.586.585-.586 1.536 0 2.121l15 15c.293.293.677.439 1.06.439s.768-.146 1.061-.439l15-15c.585-.586.585-1.536 0-2.121z" fill="#3a312a"/><path d="m71.967 62.443h112.188v167.667h-112.188z" fill="#fce8cb"/><path d="m184.155 60.943h-112.188c-.829 0-1.5.671-1.5 1.5v33.755c0 .829.671 1.5 1.5 1.5s1.5-.671 1.5-1.5v-32.255h109.188v164.667h-109.188v-119.149c0-.829-.671-1.5-1.5-1.5s-1.5.671-1.5 1.5v120.649c0 .829.671 1.5 1.5 1.5h112.188c.828 0 1.5-.671 1.5-1.5v-167.667c0-.828-.672-1.5-1.5-1.5z" fill="#3a312a"/><path d="m128.061 16.674-15.216 12.415-10.185 8.311-30.693 25.043h112.188z" fill="#87796f"/><path d="m185.103 61.281-56.094-45.77c-.553-.45-1.345-.45-1.897 0l-15.216 12.416c-.642.523-.738 1.469-.214 2.11.523.641 1.468.738 2.11.214l14.268-11.642 51.883 42.333h-103.765l27.43-22.381c.642-.523.738-1.469.214-2.11-.524-.642-1.47-.739-2.11-.214l-30.693 25.044c-.492.401-.678 1.068-.465 1.665.213.598.779.997 1.413.997h112.188c.635 0 1.2-.399 1.413-.997.213-.597.027-1.264-.465-1.665z" fill="#3a312a"/><path d="m128.061 180.61c-13.86 0-25.095 11.235-25.095 25.095v24.405h50.19v-24.405c0-13.86-11.235-25.095-25.095-25.095z" fill="#f16c7a"/><path d="m128.061 179.11c-14.664 0-26.595 11.931-26.595 26.595v24.405c0 .829.671 1.5 1.5 1.5h50.191c.828 0 1.5-.671 1.5-1.5v-24.405c-.001-14.665-11.931-26.595-26.596-26.595zm23.595 49.5h-47.191v-22.905c0-13.01 10.585-23.595 23.595-23.595s23.595 10.585 23.595 23.595v22.905z" fill="#3a312a"/><path d="m128.061 179.11c-.829 0-1.5.671-1.5 1.5v49.5c0 .829.671 1.5 1.5 1.5s1.5-.671 1.5-1.5v-49.5c-.001-.829-.671-1.5-1.5-1.5z" fill="#3a312a"/><path d="m94.228 81.61h22v22h-22z" fill="#8ac6dd"/><path d="m116.228 80.11h-22c-.829 0-1.5.671-1.5 1.5v22c0 .829.671 1.5 1.5 1.5h22c.829 0 1.5-.671 1.5-1.5v-22c0-.829-.671-1.5-1.5-1.5zm-1.5 22h-19v-19h19z" fill="#3a312a"/><path d="m139.894 81.61h22v22h-22z" fill="#8ac6dd"/><path d="m161.894 80.11h-22c-.828 0-1.5.671-1.5 1.5v22c0 .829.672 1.5 1.5 1.5h22c.828 0 1.5-.671 1.5-1.5v-22c0-.829-.671-1.5-1.5-1.5zm-1.5 22h-19v-19h19z" fill="#3a312a"/><path d="m94.228 116.11h22v22h-22z" fill="#8ac6dd"/><path d="m116.228 114.61h-22c-.829 0-1.5.671-1.5 1.5v22c0 .829.671 1.5 1.5 1.5h22c.829 0 1.5-.671 1.5-1.5v-22c0-.829-.671-1.5-1.5-1.5zm-1.5 22h-19v-19h19z" fill="#3a312a"/><path d="m139.894 116.11h22v22h-22z" fill="#8ac6dd"/><path d="m161.894 114.61h-22c-.828 0-1.5.671-1.5 1.5v22c0 .829.672 1.5 1.5 1.5h22c.828 0 1.5-.671 1.5-1.5v-22c0-.829-.671-1.5-1.5-1.5zm-1.5 22h-19v-19h19z" fill="#3a312a"/><path d="m94.228 150.61h22v22h-22z" fill="#8ac6dd"/><path d="m116.228 149.11h-22c-.829 0-1.5.671-1.5 1.5v22c0 .829.671 1.5 1.5 1.5h22c.829 0 1.5-.671 1.5-1.5v-22c0-.829-.671-1.5-1.5-1.5zm-1.5 22h-19v-19h19z" fill="#3a312a"/><path d="m139.894 150.61h22v22h-22z" fill="#8ac6dd"/><path d="m161.894 149.11h-22c-.828 0-1.5.671-1.5 1.5v22c0 .829.672 1.5 1.5 1.5h22c.828 0 1.5-.671 1.5-1.5v-22c0-.829-.671-1.5-1.5-1.5zm-1.5 22h-19v-19h19z" fill="#3a312a"/><path d="m64.311 230.11h127.5v9.333h-127.5z" fill="#8ac6dd"/><path d="m191.811 228.61h-127.5c-.829 0-1.5.671-1.5 1.5v9.333c0 .829.671 1.5 1.5 1.5h127.5c.828 0 1.5-.671 1.5-1.5v-9.333c0-.829-.671-1.5-1.5-1.5zm-1.5 9.333h-124.5v-6.333h124.5z" fill="#3a312a"/><path d="m167.651 63.94h15v164.67h-15z" fill="#decaad"/><path d="m128.061 18.61-7.5 6.12 44.38 36.21h15z" fill="#695b51"/><path d="m175.311 231.61h15v6.33h-15z" fill="#6ca8bf"/></svg>