<svg height="480pt" viewBox="0 0 480 480" width="480pt" xmlns="http://www.w3.org/2000/svg"><path d="m8 8h464v464h-464zm0 0" fill="#5a6470"/><path d="m392 208h-304v-64h80l24 32h200zm0 0" fill="#f4b442"/><path d="m8 8h464v64h-464zm0 0" fill="#ececec"/><path d="m32 32h32v16h-32zm0 0" fill="#dd3e46"/><path d="m80 32h32v16h-32zm0 0" fill="#ffd782"/><path d="m128 32h32v16h-32zm0 0" fill="#55b56a"/><path d="m392 400h-304l-16-192h336zm0 0" fill="#ffd782"/><path d="m120 176h240v32h-240zm0 0" fill="#f4f4e6"/><path d="m360 376h-40v-16h33.222656l6.890625-41.320312 15.773438 2.640624-8 48c-.644531 3.855469-3.980469 6.679688-7.886719 6.679688zm0 0" fill="#f4b442"/><path d="m104 232h16v16h-16zm0 0" fill="#f4b442"/><path d="m0 480h480v-480h-480zm16-464h448v48h-448zm0 64h448v384h-448zm0 0"/><path d="m32 32h32v16h-32zm0 0"/><path d="m80 32h32v16h-32zm0 0"/><path d="m128 32h32v16h-32zm0 0"/><path d="m408 200h-8v-24c0-4.417969-3.582031-8-8-8h-196l-21.601562-28.800781c-1.507813-2.011719-3.878907-3.199219-6.398438-3.199219h-80c-4.417969 0-8 3.582031-8 8v56h-8c-2.242188-.007812-4.382812.925781-5.90625 2.574219-1.519531 1.644531-2.28125 3.855469-2.09375 6.089843l16 192c.347656 4.15625 3.828125 7.351563 8 7.335938h304c4.171875.015625 7.652344-3.179688 8-7.335938l16-192c.1875-2.234374-.574219-4.445312-2.09375-6.089843-1.523438-1.648438-3.664062-2.582031-5.90625-2.574219zm-40-16h16v16h-16zm-16 0v16h-224v-16zm-256-32h68l12 16h-56c-4.417969 0-8 3.582031-8 8v24h-16zm288.640625 240h-289.28125l-14.664063-176h318.609376zm0 0"/><path d="m353.222656 360h-33.222656v16h40c3.90625 0 7.242188-2.824219 7.886719-6.679688l8-48-15.773438-2.640624zm0 0"/><path d="m104 232h16v16h-16zm0 0"/></svg>